<svg aria-hidden="true" style="position: absolute; width: 0; height: 0; overflow: hidden;" version="1.1" xmlns="http://www.w3.org/2000/svg" xmlns:xlink="http://www.w3.org/1999/xlink">
    <defs>
        <symbol id="icon-astronaut" viewBox="0 0 32 32">
        <path fill="#2196f3" style="fill: var(--color1, #2196f3)" d="M31.974 4.524c-0.063-0.193-0.229-0.333-0.43-0.363l-1.91-0.278-0.855-1.731c-0.179-0.365-0.777-0.365-0.956 0l-0.855 1.731-1.91 0.278c-0.201 0.029-0.367 0.17-0.431 0.363-0.062 0.193-0.011 0.405 0.135 0.547l1.383 1.348-0.326 1.903c-0.034 0.2 0.048 0.402 0.212 0.522 0.166 0.121 0.382 0.135 0.562 0.040l1.709-0.899 1.709 0.899c0.078 0.041 0.164 0.061 0.249 0.061 0.11 0 0.221-0.034 0.314-0.102 0.164-0.119 0.246-0.322 0.212-0.522l-0.326-1.903 1.383-1.348c0.145-0.142 0.197-0.354 0.135-0.547zM29.511 5.851c-0.125 0.122-0.183 0.299-0.153 0.472l0.191 1.114-1-0.526c-0.078-0.041-0.163-0.061-0.249-0.061s-0.17 0.020-0.249 0.061l-1.001 0.526 0.191-1.114c0.030-0.173-0.028-0.349-0.153-0.472l-0.81-0.789 1.119-0.163c0.174-0.025 0.324-0.134 0.402-0.292l0.5-1.013 0.5 1.013c0.078 0.157 0.228 0.267 0.402 0.292l1.119 0.163-0.809 0.789z"></path>
        <path fill="#2196f3" style="fill: var(--color1, #2196f3)" d="M26.134 20.522h-1.067v1.067h1.067v-1.067z"></path>
        <path fill="#2196f3" style="fill: var(--color1, #2196f3)" d="M26.134 22.656h-1.067v1.067h1.067v-1.067z"></path>
        <path fill="#2196f3" style="fill: var(--color1, #2196f3)" d="M27.2 21.589h-1.067v1.067h1.067v-1.067z"></path>
        <path fill="#2196f3" style="fill: var(--color1, #2196f3)" d="M25.067 21.589h-1.067v1.067h1.067v-1.067z"></path>
        <path fill="#2196f3" style="fill: var(--color1, #2196f3)" d="M22.4 26.389h-1.067v1.067h1.067v-1.067z"></path>
        <path fill="#2196f3" style="fill: var(--color1, #2196f3)" d="M22.4 28.522h-1.067v1.067h1.067v-1.067z"></path>
        <path fill="#2196f3" style="fill: var(--color1, #2196f3)" d="M23.467 27.456h-1.067v1.067h1.067v-1.067z"></path>
        <path fill="#2196f3" style="fill: var(--color1, #2196f3)" d="M21.333 27.456h-1.067v1.067h1.067v-1.067z"></path>
        <path fill="#2196f3" style="fill: var(--color1, #2196f3)" d="M16 24.256h-1.067v1.067h1.067v-1.067z"></path>
        <path fill="#2196f3" style="fill: var(--color1, #2196f3)" d="M16 26.389h-1.067v1.067h1.067v-1.067z"></path>
        <path fill="#2196f3" style="fill: var(--color1, #2196f3)" d="M17.067 25.322h-1.067v1.067h1.067v-1.067z"></path>
        <path fill="#2196f3" style="fill: var(--color1, #2196f3)" d="M14.933 25.322h-1.067v1.067h1.067v-1.067z"></path>
        <path fill="#2196f3" style="fill: var(--color1, #2196f3)" d="M5.867 6.122h-1.067v1.067h1.067v-1.067z"></path>
        <path fill="#2196f3" style="fill: var(--color1, #2196f3)" d="M5.867 8.255h-1.067v1.067h1.067v-1.067z"></path>
        <path fill="#2196f3" style="fill: var(--color1, #2196f3)" d="M6.933 7.189h-1.067v1.067h1.067v-1.067z"></path>
        <path fill="#2196f3" style="fill: var(--color1, #2196f3)" d="M4.8 7.189h-1.067v1.067h1.067v-1.067z"></path>
        <path fill="#212121" style="fill: var(--color2, #212121)" d="M24.715 14.159c-0.287-0.388-0.709-0.637-1.188-0.705-0.481-0.068-0.956 0.058-1.34 0.352l-1.252 0.96-1.898 1.417-1.358-0.541c2.421-1.086 4.114-3.508 4.114-6.32 0-3.823-3.123-6.933-6.961-6.933s-6.961 3.11-6.961 6.933c0 1.386 0.414 2.674 1.12 3.758l-2.764-0.024c-0.002 0-0.003 0-0.005 0-0.009 0-0.015 0.004-0.023 0.005-0.053 0.002-0.105 0.013-0.155 0.031-0.013 0.005-0.026 0.008-0.038 0.013-0.006 0.003-0.013 0.003-0.019 0.006l-3.233 1.596c-0.001 0-0.001 0-0.001 0.001l-1.893 0.911c-0.021 0.009-0.042 0.021-0.063 0.035-0.755 0.502-1.012 1.489-0.598 2.295 0.22 0.429 0.595 0.745 1.056 0.889 0.178 0.055 0.359 0.083 0.539 0.083 0.29 0 0.577-0.071 0.839-0.211l1.388-0.738 2.264-1.169 1.357-0.008-5.442 5.416c-0.001 0.001-0.001 0.001-0.002 0.001l-1.339 1.333c-0.316 0.315-0.49 0.732-0.49 1.178s0.174 0.863 0.49 1.179c0.325 0.323 0.752 0.485 1.179 0.485s0.854-0.162 1.18-0.485l1.314-1.309 1.741-1.3 0.901 0.897-1.762 1.754c-0 0.001-0.001 0.001-0.002 0.001l-1.339 1.333c-0.316 0.315-0.49 0.732-0.49 1.178s0.174 0.863 0.49 1.179c0.325 0.323 0.753 0.485 1.18 0.485s0.855-0.162 1.18-0.485l3.482-3.467c0.001-0.001 0.001-0.001 0.001-0.002l1.010-1-0.004-0.004c0.006-0.006 0.015-0.009 0.022-0.015l5.166-5.658 3.471 0.494c0.025 0.004 0.050 0.005 0.075 0.005 0.065 0 0.127-0.015 0.187-0.038 0.018-0.006 0.033-0.015 0.050-0.023 0.019-0.010 0.039-0.015 0.058-0.027l3.213-2.133c0.012-0.008 0.018-0.021 0.029-0.029 0.013-0.010 0.029-0.014 0.041-0.026l1.271-1.191c0.662-0.62 0.753-1.635 0.212-2.362zM2.13 17.77c-0.173 0.093-0.37 0.111-0.558 0.052-0.187-0.058-0.338-0.186-0.427-0.358-0.161-0.314-0.068-0.695 0.214-0.902l1.314-0.632 0.449 1.312-0.992 0.528zM5.628 15.942l-1.548 0.8-0.439-1.283 2.027-1.001-0.040 1.484zM20.727 9.322c0 0.918-0.219 1.785-0.599 2.559l-4.181-1.899c-0.044-0.573-0.341-1.075-0.788-1.388l1.464-4.86c2.378 0.756 4.105 2.974 4.105 5.588zM8.938 9.322c0-3.235 2.644-5.867 5.894-5.867 0.253 0 0.5 0.021 0.745 0.052l-1.432 4.754c-0.019-0.001-0.037-0.006-0.057-0.006-1.033 0-1.873 0.837-1.873 1.867s0.84 1.867 1.873 1.867c0.694 0 1.294-0.383 1.618-0.945l3.862 1.755c-1.075 1.446-2.795 2.39-4.737 2.39-3.25 0-5.894-2.632-5.894-5.867zM14.894 10.122c0 0.441-0.362 0.8-0.806 0.8s-0.806-0.359-0.806-0.8c0-0.441 0.362-0.8 0.806-0.8s0.806 0.359 0.806 0.8zM2.465 25.146c-0.236 0.234-0.619 0.234-0.854 0.001-0.114-0.114-0.176-0.263-0.176-0.423s0.062-0.309 0.176-0.421l0.962-0.958 0.851 0.848-0.959 0.955zM5.679 28.88c-0.236 0.234-0.619 0.235-0.855 0.001-0.114-0.114-0.176-0.263-0.176-0.423s0.062-0.309 0.176-0.421l0.963-0.959 0.852 0.848-0.96 0.955zM9.16 25.411c-0.001 0-0.001 0-0.002 0.001l-1.765 1.76-0.852-0.848 1.763-1.755c0 0 0 0 0-0s0.001-0.001 0.002-0.001c0.040-0.040 0.065-0.088 0.090-0.135 0.007-0.014 0.020-0.026 0.026-0.040 0.017-0.041 0.019-0.085 0.026-0.129 0.003-0.025 0.014-0.047 0.014-0.073 0-0.036-0.013-0.070-0.020-0.106-0.006-0.032-0.006-0.065-0.019-0.095-0.020-0.050-0.055-0.094-0.091-0.138-0.010-0.012-0.014-0.027-0.025-0.038 0 0 0 0-0.001 0s-0.001-0.002-0.001-0.002l-1.607-1.6c-0.017-0.017-0.039-0.024-0.058-0.038-0.028-0.022-0.055-0.042-0.087-0.058-0.030-0.015-0.061-0.024-0.093-0.033-0.034-0.010-0.067-0.017-0.103-0.020-0.033-0.002-0.063 0.001-0.095 0.005-0.036 0.004-0.069 0.009-0.104 0.020-0.034 0.011-0.063 0.027-0.094 0.045-0.020 0.011-0.042 0.015-0.061 0.029l-1.773 1.324-0.901-0.897 2.399-2.386 4.361 4.289-0.928 0.919zM15.979 18.394c-0.015-0.002-0.030 0.004-0.045 0.003-0.039-0.002-0.076 0.001-0.115 0.007-0.030 0.005-0.059 0.011-0.088 0.021-0.034 0.012-0.065 0.028-0.097 0.047-0.030 0.018-0.057 0.037-0.083 0.061-0.013 0.011-0.028 0.017-0.040 0.029l-4.698 5.146-4.328-4.257 2.833-2.818c0.209-0.208 0.21-0.546 0.002-0.755-0.105-0.105-0.243-0.157-0.381-0.156v-0.001l-2.219 0.013 0.028-1.607 3.104 0.027c1.265 1.294 3.029 2.101 4.981 2.101 0.437 0 0.864-0.045 1.279-0.123 0.040 0.032 0.079 0.065 0.13 0.085l2.41 0.96 0.331 1.644-3.003-0.427zM20.020 18.572l-0.313-1.558 1.446-1.080 0.947 1.257-2.080 1.381zM23.774 15.741l-0.838 0.785-0.931-1.236 0.831-0.637c0.155-0.119 0.351-0.168 0.543-0.143 0.193 0.027 0.364 0.128 0.48 0.284 0.217 0.292 0.18 0.699-0.085 0.947z"></path>
        <path fill="#212121" style="fill: var(--color2, #212121)" d="M13.602 18.544l-2.143-2.133c-0.207-0.207-0.545-0.207-0.753 0l-2.142 2.133c-0.1 0.101-0.157 0.236-0.157 0.378s0.056 0.278 0.157 0.378l2.142 2.133c0.104 0.103 0.241 0.155 0.377 0.155s0.273-0.052 0.376-0.155l2.143-2.133c0.1-0.1 0.157-0.236 0.157-0.378s-0.057-0.278-0.157-0.378zM11.083 20.303l-1.387-1.381 1.387-1.381 1.387 1.381-1.387 1.381z"></path>
        <path fill="#212121" style="fill: var(--color2, #212121)" d="M17.164 5.071l-0.258 1.036c0.071 0.018 1.738 0.452 1.738 2.149h1.067c-0-2.017-1.666-2.965-2.547-3.185z"></path>
        <path fill="#212121" style="fill: var(--color2, #212121)" d="M19.711 9.322h-1.067v1.067h1.067v-1.067z"></path>
        </symbol>
        <symbol id="icon-diagram" viewBox="0 0 32 32">
        <path fill="#2196f3" style="fill: var(--color1, #2196f3)" d="M14.926 14.965h1.066v4.798h-1.066v-4.797z"></path>
        <path fill="#2196f3" style="fill: var(--color1, #2196f3)" d="M19.19 17.097h1.066v2.665h-1.066v-2.665z"></path>
        <path fill="#2196f3" style="fill: var(--color1, #2196f3)" d="M10.661 18.696h1.066v1.066h-1.066v-1.066z"></path>
        <path fill="#2196f3" style="fill: var(--color1, #2196f3)" d="M7.463 18.163h1.066v1.599h-1.066v-1.599z"></path>
        <path fill="#212121" style="fill: var(--color2, #212121)" d="M1.599 28.291h25.587c0.883 0 1.599-0.716 1.599-1.599v-2.132c0-0.883-0.716-1.599-1.599-1.599h-0.533v-13.293l3.028-2.868c0.703 0.346 1.553 0.136 2.013-0.499s0.396-1.508-0.152-2.068-1.42-0.644-2.065-0.198c-0.644 0.446-0.873 1.292-0.542 2.002l-2.281 2.163v-1.23c0-0.883-0.716-1.599-1.599-1.599h-21.322c-0.883 0-1.599 0.716-1.599 1.599v15.992h-0.533c-0.883 0-1.599 0.716-1.599 1.599v2.132c0 0.883 0.716 1.599 1.599 1.599zM30.384 4.837c0.294 0 0.533 0.239 0.533 0.533s-0.239 0.533-0.533 0.533c-0.294 0-0.533-0.239-0.533-0.533s0.239-0.533 0.533-0.533zM3.198 6.969c0-0.294 0.239-0.533 0.533-0.533h21.322c0.294 0 0.533 0.239 0.533 0.533v2.239l-1.066 1.013v-2.186c0-0.294-0.239-0.533-0.533-0.533h-19.19c-0.294 0-0.533 0.239-0.533 0.533v13.326c0 0.294 0.239 0.533 0.533 0.533h19.19c0.294 0 0.533-0.239 0.533-0.533v-9.674l1.066-1.010v12.284h-22.388v-15.992zM7.996 13.899c-0.721-0.002-1.354 0.478-1.546 1.174s0.105 1.433 0.725 1.801c0.62 0.368 1.41 0.276 1.928-0.226l1.853 0.93c0.215 0.108 0.476 0.057 0.636-0.123l3.939-4.431 3.872 2.901c0.208 0.156 0.498 0.139 0.686-0.039l3.365-3.188v8.131h-18.124v-12.26h18.124v2.66l-3.771 3.572-3.904-2.927c-0.222-0.166-0.534-0.135-0.718 0.072l-3.993 4.493-1.493-0.746c0.011-0.064 0.018-0.129 0.020-0.193 0-0.883-0.716-1.599-1.599-1.599zM8.529 15.498c0 0.294-0.239 0.533-0.533 0.533s-0.533-0.239-0.533-0.533c0-0.294 0.239-0.533 0.533-0.533s0.533 0.239 0.533 0.533zM11.727 24.027h5.331v0.533c0 0.294-0.239 0.533-0.533 0.533h-4.264c-0.294 0-0.533-0.239-0.533-0.533v-0.533zM1.066 24.56c0-0.294 0.239-0.533 0.533-0.533h9.062v0.533c0 0.883 0.716 1.599 1.599 1.599h4.264c0.883 0 1.599-0.716 1.599-1.599v-0.533h9.062c0.294 0 0.533 0.239 0.533 0.533v2.132c0 0.294-0.239 0.533-0.533 0.533h-25.587c-0.294 0-0.533-0.239-0.533-0.533v-2.132z"></path>
        </symbol>
        <symbol id="icon-clock" viewBox="0 0 32 32">
        <path fill="#212121" style="fill: var(--color2, #212121)" d="M31.297 15.301c-0.002-8.452-6.855-15.303-15.308-15.301s-15.303 6.855-15.301 15.308c0.001 6.658 4.307 12.551 10.649 14.576 0.061 0.019 0.124 0.029 0.187 0.029 0.121-0 0.239-0.032 0.342-0.094 0.135-0.080 0.236-0.207 0.283-0.356l3.865-12.25c1.057-0.005 1.909-0.866 1.903-1.923s-0.866-1.909-1.923-1.903c-0.284 0.001-0.565 0.067-0.82 0.191l-5.106-5.107c-0.253-0.245-0.657-0.238-0.902 0.016-0.239 0.247-0.239 0.639 0 0.886l5.103 5.109c-0.392 0.799-0.168 1.764 0.536 2.309l-3.683 11.673c-7.278-2.681-11.004-10.754-8.323-18.032s10.754-11.004 18.032-8.323 11.004 10.754 8.323 18.032c-1.31 3.556-4.001 6.431-7.462 7.973l-0.398-1.874c-0.073-0.344-0.411-0.565-0.756-0.492-0.109 0.023-0.209 0.074-0.292 0.148l-3.837 3.426c-0.263 0.234-0.287 0.637-0.052 0.9 0.076 0.085 0.174 0.149 0.283 0.184l4.899 1.563c0.335 0.108 0.694-0.077 0.802-0.412 0.034-0.106 0.040-0.219 0.017-0.328l-0.391-1.839c5.664-2.388 9.342-7.942 9.329-14.089zM15.992 14.664c0.352 0 0.638 0.286 0.638 0.638s-0.286 0.638-0.638 0.638c-0.352 0-0.638-0.285-0.638-0.638s0.285-0.638 0.638-0.638zM18.093 29.528l2.184-1.948 0.603 2.84-2.787-0.892z"></path>
        <path fill="#2196f3" style="fill: var(--color1, #2196f3)" d="M15.354 3.185v1.275c0 0.352 0.285 0.638 0.638 0.638s0.638-0.285 0.638-0.638v-1.275c0-0.352-0.286-0.638-0.638-0.638s-0.638 0.286-0.638 0.638z"></path>
        <path fill="#2196f3" style="fill: var(--color1, #2196f3)" d="M3.876 14.664c-0.352 0-0.638 0.286-0.638 0.638s0.285 0.638 0.638 0.638h1.275c0.352 0 0.638-0.285 0.638-0.638s-0.285-0.638-0.638-0.638h-1.275z"></path>
        <path fill="#2196f3" style="fill: var(--color1, #2196f3)" d="M28.108 15.939c0.352 0 0.638-0.285 0.638-0.638s-0.285-0.638-0.638-0.638h-1.275c-0.352 0-0.638 0.286-0.638 0.638s0.286 0.638 0.638 0.638h1.275z"></path>
        </symbol>
        <symbol id="icon-antenna" viewBox="0 0 32 32">
        <path fill="#212121" style="fill: var(--color2, #212121)" d="M30.773 22.098l-8.443-8.505 0.937-4.615c0.242 0.094 0.499 0.144 0.758 0.146h0.006c1.192 0.014 2.17-0.941 2.184-2.133s-0.941-2.17-2.133-2.184c-1.192-0.014-2.17 0.941-2.184 2.133-0.003 0.255 0.039 0.509 0.125 0.749l-4.96 0.605-8.091-8.133c-0.099-0.101-0.235-0.159-0.377-0.16-0.14 0.001-0.274 0.056-0.373 0.155l-1.513 1.504c-0.208 0.208-0.208 0.546 0 0.754l0.814 0.826c-3.153 5.798-2.129 12.978 2.519 17.663 0.043 0.041 0.092 0.074 0.146 0.098-0.034 0.18-0.051 0.364-0.052 0.547v6.187h-6.4c-1.472 0.002-2.665 1.195-2.667 2.667v1.067c0 0.295 0.239 0.533 0.533 0.533h24.533c0.295 0 0.533-0.239 0.533-0.533v-1.067c-0.002-1.472-1.195-2.665-2.667-2.667h-6.4v-2.742c1.003 0.21 2.024 0.317 3.049 0.32 2.458-0.003 4.877-0.615 7.040-1.783l0.818 0.823c0.099 0.101 0.235 0.159 0.377 0.16 0.14-0.001 0.274-0.056 0.373-0.155l1.513-1.504c0.208-0.208 0.208-0.546 0-0.754zM23.28 6.233c0.418-0.415 1.093-0.414 1.508 0.004s0.414 1.093-0.004 1.508c-0.2 0.199-0.47 0.31-0.752 0.31h-0.003c-0.589-0.003-1.064-0.483-1.061-1.072 0.002-0.282 0.115-0.552 0.314-0.751h-0.002zM22.024 9.738l-0.598 2.946-1.175-1.182 1.774-1.763zM21.419 8.836l-1.92 1.909-1.485-1.493 3.405-0.415zM24.004 28.8c0.884 0 1.6 0.716 1.6 1.6v0.533h-23.467v-0.533c0-0.884 0.716-1.6 1.6-1.6h20.267zM16.537 26.667v1.067h-5.333v-1.067h5.333zM11.204 25.6v-4.053c0-1.294 1.196-2.347 2.667-2.347s2.667 1.053 2.667 2.347v4.053h-5.333zM17.604 23.904v-2.357c0-1.882-1.675-3.413-3.733-3.413-1.331-0.020-2.576 0.657-3.281 1.786-4.058-4.274-4.971-10.645-2.279-15.887l18.602 18.708c-2.872 1.461-6.165 1.873-9.309 1.163zM28.893 23.22l-21.057-21.181 0.755-0.752 7.935 7.98c0.004 0 0.006 0.007 0.010 0.010l13.115 13.191-0.757 0.752z"></path>
        <path fill="#2196f3" style="fill: var(--color1, #2196f3)" d="M13.876 20.267h-0.005c-0.884-0.001-1.601 0.714-1.602 1.598s0.714 1.601 1.598 1.602h0.005c0.884 0.001 1.601-0.714 1.602-1.598s-0.714-1.601-1.598-1.602zM14.249 22.245c-0.1 0.1-0.236 0.156-0.378 0.155-0.295-0.002-0.532-0.242-0.531-0.536 0.001-0.141 0.057-0.276 0.157-0.375s0.233-0.154 0.373-0.155c0.295 0.002 0.532 0.241 0.53 0.536-0.001 0.141-0.057 0.276-0.157 0.375h0.005z"></path>
        </symbol>
        
        <symbol id="icon-client6" viewBox="0 0 106 60">
        <path d="M53.425 27.4082C52.9819 26.8184 52.7699 26.1213 52.8203 25.4196V22.5364C52.8203 21.6526 53.0207 20.9809 53.4216 20.5214C53.8224 20.0619 54.511 19.8331 55.4871 19.8351C56.4044 19.8351 57.0555 20.0306 57.4405 20.4217C57.8605 20.9207 58.0648 21.5308 58.018 22.1463V22.8239H56.3772V22.1375C56.383 21.9129 56.3671 21.6882 56.3296 21.4659C56.306 21.3138 56.2234 21.1732 56.0952 21.067C55.9267 20.9525 55.7145 20.8969 55.5007 20.9115C55.2759 20.897 55.0529 20.9556 54.8756 21.0758C54.7327 21.1935 54.6374 21.3477 54.6038 21.5157C54.5567 21.7511 54.5351 21.9897 54.5393 22.2285V25.7276C54.5134 26.0651 54.5858 26.4029 54.7499 26.7102C54.8315 26.8141 54.9448 26.8965 55.0774 26.9483C55.2099 27 55.3564 27.0191 55.5007 27.0035C55.7109 27.0184 55.9195 26.9615 56.0816 26.8451C56.2153 26.7305 56.3013 26.581 56.3262 26.4198C56.3645 26.1876 56.3816 25.9532 56.3772 25.7188V25.009H58.018V25.6572C58.0641 26.2987 57.8648 26.9356 57.4507 27.4698C57.0736 27.898 56.4315 28.1122 55.4871 28.1122C54.5427 28.1122 53.8292 27.8834 53.425 27.4082Z"/>
        <path d="M60.2569 27.4376C59.8425 26.9888 59.6353 26.3347 59.6353 25.4695V22.4367C59.6353 21.5802 59.8425 20.932 60.2569 20.4921C60.6714 20.0521 61.3644 19.8331 62.336 19.8351C63.3008 19.8351 63.9904 20.0541 64.4049 20.4921C64.8193 20.932 65.03 21.5802 65.03 22.4367V25.4695C65.03 26.3259 64.8193 26.9829 64.3981 27.4346C63.9768 27.8863 63.2906 28.1122 62.336 28.1122C61.3814 28.1122 60.6748 27.8834 60.2569 27.4376ZM63.1004 26.7102C63.2488 26.429 63.3164 26.1211 63.2974 25.8126V22.0994C63.3165 21.7969 63.25 21.4949 63.1038 21.2195C63.0205 21.1133 62.9044 21.0296 62.7686 20.9777C62.6329 20.9258 62.483 20.908 62.336 20.9262C62.1886 20.9084 62.0384 20.9265 61.9022 20.9783C61.766 21.0301 61.6492 21.1136 61.5648 21.2195C61.4155 21.4941 61.3477 21.7965 61.3678 22.0994V25.8302C61.3472 26.1388 61.4148 26.4471 61.5648 26.7278C61.6605 26.8224 61.7785 26.8982 61.9109 26.9502C62.0434 27.0021 62.1872 27.029 62.3326 27.029C62.4781 27.029 62.6219 27.0021 62.7543 26.9502C62.8867 26.8982 63.0047 26.8224 63.1004 26.7278V26.7102Z"/>
        <path d="M67.0037 19.9236H68.7702L70.0985 25.5192L71.4574 19.9236H73.1764L73.3497 28.0003H72.0791L71.9432 22.3871L70.6319 28.0003H69.6127L68.2538 22.3665L68.1281 28.0003H66.844L67.0037 19.9236Z"/>
        <path d="M75.3303 19.9236H78.082C79.6673 19.9236 80.46 20.688 80.46 22.217C80.46 23.6814 79.6254 24.4126 77.9563 24.4106H77.0187V28.0003H75.3201L75.3303 19.9236ZM77.6811 23.3754C77.8489 23.3938 78.0194 23.3805 78.1807 23.3364C78.342 23.2924 78.4903 23.2186 78.6153 23.1202C78.8101 22.8474 78.896 22.5271 78.8599 22.2082C78.8688 21.9618 78.8414 21.7154 78.7784 21.475C78.7542 21.3947 78.7117 21.3193 78.6533 21.2534C78.595 21.1874 78.522 21.1321 78.4387 21.0908C78.2029 20.9931 77.9422 20.9487 77.6811 20.9618H77.0221V23.3754H77.6811Z"/>
        <path d="M82.9094 19.9236H84.7337L86.6056 28.0003H85.0225L84.6522 26.138H83.0249L82.6445 28.0003H81.0376L82.9094 19.9236ZM84.4687 25.2025L83.8335 21.8122L83.1982 25.2025H84.4687Z"/>
        <path d="M88.1174 19.9236H89.3064L91.5826 24.5309V19.9236H92.9924V28.0003H91.8612L89.5714 23.1906V28.0003H88.114L88.1174 19.9236Z"/>
        <path d="M96.2943 24.9208L94.4021 19.9349H95.9954L97.1504 23.1376L98.2341 19.9349H99.7934L97.925 24.9208V28.0003H96.2943V24.9208Z"/>
        <path d="M56.0478 31.5316V31.9539H54.6618V35.2359H54.0809V31.9539H52.688V31.5316H56.0478Z"/>
        <path d="M60.3926 35.2361H59.9441C59.8986 35.2386 59.8536 35.226 59.8184 35.2009C59.7845 35.1794 59.7585 35.1499 59.7437 35.1159L59.3428 34.2361H57.42L57.0191 35.1159C57.0077 35.1527 56.9868 35.1868 56.9579 35.2156C56.9224 35.2402 56.8777 35.2527 56.8322 35.2508H56.3838L58.0824 31.5467H58.6735L60.3926 35.2361ZM57.5796 33.8607H59.1831L58.5037 32.3532C58.4536 32.2392 58.4116 32.1227 58.378 32.0042C58.3542 32.0746 58.3338 32.142 58.3134 32.2007L58.2523 32.3561L57.5796 33.8607Z"/>
        <path d="M63.321 34.8723C63.4274 34.8771 63.534 34.8771 63.6404 34.8723C63.7322 34.8642 63.8231 34.8495 63.9122 34.8283C63.9954 34.8107 64.0771 34.7882 64.1568 34.7609C64.2315 34.7345 64.3062 34.7022 64.3844 34.67V33.8369H63.7049C63.6881 33.8377 63.6713 33.8356 63.6555 33.8305C63.6397 33.8255 63.6253 33.8177 63.6132 33.8076C63.6021 33.7993 63.5932 33.7889 63.5873 33.7772C63.5815 33.7655 63.5787 33.7529 63.5792 33.7401V33.4556H64.8974V34.8753C64.7898 34.9417 64.6762 35.0006 64.5576 35.0513C64.4365 35.1029 64.3103 35.1451 64.1805 35.1774C64.0416 35.2127 63.8996 35.2382 63.7559 35.2537C63.5912 35.2694 63.4256 35.2773 63.2599 35.2771C62.9669 35.2792 62.6762 35.2324 62.4038 35.1393C62.1495 35.051 61.9184 34.9193 61.7243 34.7521C61.5352 34.5832 61.3863 34.3839 61.2861 34.1654C61.179 33.9199 61.126 33.6593 61.1298 33.3969C61.1263 33.133 61.1781 32.8706 61.2827 32.6226C61.3804 32.4031 61.5296 32.2033 61.7209 32.0359C61.9148 31.8693 62.146 31.7385 62.4004 31.6517C62.6913 31.5572 63.0001 31.5105 63.3108 31.5138C63.469 31.5137 63.6269 31.5244 63.7831 31.5461C63.9211 31.5655 64.0566 31.597 64.1873 31.64C64.3062 31.6785 64.42 31.7277 64.5271 31.7866C64.6312 31.8445 64.73 31.9092 64.8226 31.9802L64.6595 32.209C64.6468 32.2299 64.6278 32.2475 64.6044 32.2598C64.5811 32.2722 64.5544 32.279 64.5271 32.2794C64.4895 32.2783 64.453 32.2682 64.4217 32.2501C64.3708 32.2266 64.3164 32.1973 64.2553 32.1621C64.183 32.123 64.1069 32.0896 64.0277 32.0623C63.9264 32.0273 63.8218 31.9998 63.7151 31.9802C63.5728 31.9576 63.4283 31.9468 63.2837 31.9479C63.0595 31.9458 62.837 31.9806 62.628 32.0506C62.439 32.1161 62.2686 32.2161 62.1286 32.3439C61.9878 32.4771 61.8803 32.6338 61.8127 32.8044C61.6609 33.2056 61.6609 33.6381 61.8127 34.0393C61.887 34.2135 62.0027 34.3724 62.1524 34.5057C62.2917 34.6328 62.4608 34.7328 62.6484 34.799C62.8644 34.863 63.0934 34.888 63.321 34.8723Z"/>
        <path d="M68.7363 34.8135H70.5912V35.2359H68.1689V31.5316H68.7499L68.7363 34.8135Z"/>
        <path d="M72.5209 35.2359H71.9399V31.5316H72.5209V35.2359Z"/>
        <path d="M74.6814 31.5492C74.7159 31.5662 74.746 31.5892 74.7697 31.6167L77.253 34.409C77.2497 34.3651 77.2497 34.321 77.253 34.277C77.253 34.236 77.253 34.1949 77.253 34.1568V31.517H77.7592V35.2362H77.4671C77.4238 35.2392 77.3804 35.2321 77.3414 35.2156C77.3061 35.1972 77.275 35.1733 77.2496 35.1452L74.7697 32.3558C74.7697 32.3998 74.7697 32.4409 74.7697 32.482C74.7697 32.523 74.7697 32.5612 74.7697 32.5964V35.2362H74.2839V31.5316H74.5863C74.6191 31.5317 74.6515 31.5377 74.6814 31.5492Z"/>
        <path d="M82.0365 31.5316V31.9393H79.9778V33.1623H81.6458V33.5553H79.9778V34.8195H82.0365V35.2272H79.3799V31.5316H82.0365Z"/>
        <path d="M21.1618 8.65544L46.9568 14.9788V37.1367L21.1618 30.8164V8.65544ZM19.5073 6.76666V31.8927L48.6079 39.0285V13.9053L19.5073 6.76666Z"/>
        <path d="M35.1039 50.6922L6 43.5505V18.4271L35.1039 25.5658V50.6922Z"/>
        <path d="M19.9897 8.37093L45.4484 14.6149L34.6215 23.9648L9.1594 17.7179L19.9897 8.37093ZM19.5073 6.76666L6 18.4276L35.1039 25.5662L48.6078 13.9052L19.5073 6.76666Z"/>
        <path d="M36.7415 49.2788L48.6078 39.0315L36.7415 36.1192V49.2788Z"/>
        </symbol>
        
        <symbol id="icon-client5" viewBox="0 0 106 60">
        <path d="M26.7569 44.7352C27.0006 45.0113 27.1304 45.3572 27.1236 45.7121C27.136 45.9437 27.0914 46.1748 26.993 46.3884C26.8947 46.6021 26.7451 46.7927 26.5554 46.9462C26.082 47.2735 25.4956 47.4336 24.9037 47.3969H22V41.2054H24.8442C25.4057 41.1712 25.9626 41.3166 26.42 41.6168C26.6036 41.7575 26.7491 41.9354 26.8448 42.1365C26.9406 42.3375 26.984 42.5562 26.9716 42.7752C26.9883 43.1167 26.8712 43.4525 26.6413 43.7219C26.4206 43.9679 26.1156 44.1385 25.7758 44.2059C26.161 44.2702 26.5087 44.4578 26.7569 44.7352ZM23.3511 43.8006H24.5667C24.843 43.8193 25.1174 43.7463 25.3397 43.5949C25.431 43.5191 25.502 43.4252 25.5473 43.3203C25.5925 43.2154 25.6108 43.1024 25.6007 42.99C25.6093 42.8779 25.5906 42.7656 25.5461 42.661C25.5015 42.5564 25.4322 42.4621 25.343 42.385C25.1141 42.2294 24.8312 42.1552 24.5469 42.1763H23.3511V43.8006ZM25.4587 46.1749C25.5562 46.0974 25.6329 46.0003 25.6828 45.8911C25.7326 45.782 25.7543 45.6638 25.7461 45.5458C25.7535 45.4264 25.7309 45.307 25.6799 45.1968C25.6289 45.0867 25.551 44.9888 25.4521 44.9106C25.2142 44.7492 24.9217 44.6699 24.6262 44.6868H23.3511V46.3897H24.6427C24.9334 46.405 25.2212 46.3293 25.4587 46.1749Z"/>
        <path d="M32.5709 47.3969L30.9886 44.9772H30.394V47.3969H29.033V41.2055H31.6096C32.2591 41.1639 32.9012 41.3523 33.4034 41.7317C33.7635 42.0678 33.9808 42.5106 34.0159 42.9803C34.051 43.45 33.9018 43.9158 33.595 44.2936C33.2771 44.6271 32.8428 44.8494 32.3661 44.9228L34.0508 47.3969H32.5709ZM30.394 44.1333H31.5072C32.2802 44.1333 32.6667 43.8208 32.6667 43.1957C32.6746 43.068 32.6534 42.9403 32.6045 42.8205C32.5556 42.7007 32.48 42.5916 32.3826 42.5C32.1383 42.314 31.8237 42.2238 31.5072 42.249H30.3807L30.394 44.1333Z"/>
        <path d="M40.0102 46.1506H37.2982L36.8192 47.3967H35.3921L37.8829 41.2748H39.4255L41.9064 47.3967H40.4793L40.0102 46.1506ZM39.6469 45.2129L38.6558 42.5996L37.6648 45.2129H39.6469Z"/>
        <path d="M49.3223 47.3968H47.9712L44.942 43.1865V47.3968H43.5942V41.2053H44.942L47.9712 45.4399V41.2053H49.3223V47.3968Z"/>
        <path d="M57.0325 45.9148C56.7531 46.3823 56.3275 46.7625 55.8102 47.0067C55.2221 47.2787 54.5694 47.4128 53.9107 47.3969H51.5059V41.2054H53.9107C54.5683 41.1897 55.2201 41.3205 55.8102 41.5865C56.3274 41.8252 56.7535 42.2016 57.0325 42.6663C57.3106 43.1699 57.4555 43.7263 57.4555 44.2906C57.4555 44.8549 57.3106 45.4112 57.0325 45.9148ZM55.4865 45.7666C55.8721 45.3553 56.0841 44.8311 56.0841 44.2891C56.0841 43.747 55.8721 43.2228 55.4865 42.8115C55.0204 42.439 54.4126 42.2498 53.7951 42.2852H52.857V46.2929H53.7951C54.4126 46.3283 55.0204 46.1392 55.4865 45.7666Z"/>
        <path d="M40.8557 6.76666C40.8557 6.76666 58.2944 12.7948 57.9244 21.5179V36.2722C57.9244 36.2722 40.4989 30.241 40.8623 21.5179L40.8557 6.76666Z"/>
        <path d="M73.4604 32.818C76.7539 30.7427 80.5634 29.4573 84.5401 29.0795V24.4608C79.958 26.0778 76.071 29.0097 73.4604 32.818Z"/>
        <path d="M71.4815 34.2094C74.1772 29.2395 78.8504 25.4045 84.5399 23.493V10.1846C84.5399 10.1846 59.7049 18.7716 60.2301 31.1938V52.2C60.2301 52.2 61.3368 51.8159 63.0777 51.096C63.0777 50.4246 63.0777 49.747 63.157 49.0665C63.6709 43.2995 66.6653 37.9554 71.4815 34.2094Z"/>
        <path d="M69.1197 42.013C69.2502 40.5561 69.5413 39.1151 69.9885 37.7119C66.9896 40.947 65.1734 44.9613 64.7956 49.1905C64.7592 49.5897 64.7394 49.989 64.7295 50.4003C66.14 49.7803 67.7818 49.006 69.5062 48.0956C69.0662 46.0947 68.936 44.0471 69.1197 42.013Z"/>
        <path d="M70.1074 42.0886C69.9421 43.9289 70.0454 45.7812 70.4146 47.5965C77.1998 43.8792 84.8241 38.1354 84.5301 31.1938V30.5889C79.6823 31.0855 75.1468 33.0259 71.6204 36.1119C70.7947 38.0243 70.2848 40.0386 70.1074 42.0886Z"/>
        </symbol>

        <symbol id="icon-client4" viewBox="0 0 106 60">
        <path d="M24.1462 21.1029H24.1433C21.7453 21.1029 19.8013 22.8305 19.8013 24.9615V24.9641C19.8013 27.0952 21.7453 28.8228 24.1433 28.8228H24.1462C26.5442 28.8228 28.4882 27.0952 28.4882 24.9641V24.9615C28.4882 22.8305 26.5442 21.1029 24.1462 21.1029Z"/>
        <path d="M56.195 19.8693C56.1882 16.9093 54.8623 14.0723 52.5074 11.979C50.1525 9.88572 46.9604 8.70672 43.6297 8.7V8.7C40.298 8.70537 37.1045 9.88379 34.7484 11.9772C32.3922 14.0706 31.0655 16.9085 31.0587 19.8693V36.1922C31.0587 36.1922 56.1922 33.7045 56.195 19.8719V19.8693Z"/>
        <path d="M11 41.5495C11.006 43.6091 11.9291 45.5829 13.5676 47.0395C15.2061 48.4961 17.4267 49.3171 19.7442 49.3231C22.0612 49.3171 24.2814 48.4964 25.9197 47.0404C27.5581 45.5843 28.4816 43.6112 28.4884 41.5521V30.1944C28.4884 30.1944 11 31.9267 11 41.5495ZM19.7442 43.5845C19.2913 43.5845 18.8486 43.4652 18.472 43.2415C18.0955 43.0179 17.802 42.7001 17.6287 42.3283C17.4554 41.9564 17.41 41.5473 17.4984 41.1525C17.5867 40.7578 17.8048 40.3952 18.125 40.1106C18.4453 39.826 18.8533 39.6322 19.2975 39.5537C19.7416 39.4751 20.202 39.5154 20.6205 39.6695C21.0389 39.8235 21.3965 40.0843 21.6481 40.419C21.8997 40.7536 22.034 41.1471 22.034 41.5495C22.0351 41.8174 21.9767 42.0828 21.8622 42.3306C21.7476 42.5784 21.5791 42.8036 21.3664 42.9934C21.1536 43.1832 20.9008 43.3338 20.6224 43.4365C20.3441 43.5392 20.0456 43.5921 19.7442 43.5921V43.5845Z"/>
        <path d="M37.4177 42.4638H35.7302V44.2069H34.8513V39.9413H37.6287V40.6532H35.7302V41.7548H37.4177V42.4638ZM41.6423 42.1708C41.6423 42.5907 41.5681 42.9589 41.4197 43.2753C41.2712 43.5917 41.0583 43.8358 40.781 44.0077C40.5056 44.1796 40.1892 44.2655 39.8318 44.2655C39.4783 44.2655 39.1628 44.1806 38.8855 44.0106C38.6082 43.8407 38.3933 43.5985 38.241 43.2841C38.0886 42.9677 38.0115 42.6044 38.0095 42.1942V41.9833C38.0095 41.5634 38.0847 41.1942 38.2351 40.8759C38.3875 40.5556 38.6013 40.3104 38.8767 40.1405C39.1541 39.9686 39.4705 39.8827 39.8259 39.8827C40.1814 39.8827 40.4968 39.9686 40.7722 40.1405C41.0496 40.3104 41.2634 40.5556 41.4138 40.8759C41.5662 41.1942 41.6423 41.5624 41.6423 41.9804V42.1708ZM40.7517 41.9774C40.7517 41.5302 40.6716 41.1903 40.5115 40.9579C40.3513 40.7255 40.1228 40.6093 39.8259 40.6093C39.531 40.6093 39.3035 40.7245 39.1433 40.955C38.9832 41.1835 38.9021 41.5194 38.9001 41.9628V42.1708C38.9001 42.6063 38.9802 42.9442 39.1404 43.1845C39.3005 43.4247 39.531 43.5448 39.8318 43.5448C40.1267 43.5448 40.3533 43.4296 40.5115 43.1991C40.6697 42.9667 40.7498 42.6288 40.7517 42.1854V41.9774ZM44.4929 43.0878C44.4929 42.9218 44.4343 42.7948 44.3171 42.7069C44.2 42.6171 43.989 42.5233 43.6843 42.4257C43.3796 42.3261 43.1384 42.2284 42.9607 42.1327C42.4763 41.871 42.2341 41.5184 42.2341 41.0751C42.2341 40.8446 42.2986 40.6395 42.4275 40.4599C42.5583 40.2782 42.7449 40.1366 42.9871 40.035C43.2312 39.9335 43.5046 39.8827 43.8074 39.8827C44.1121 39.8827 44.3835 39.9384 44.6218 40.0497C44.8601 40.1591 45.0447 40.3143 45.1755 40.5155C45.3083 40.7167 45.3748 40.9452 45.3748 41.2011H44.4958C44.4958 41.0058 44.4343 40.8544 44.3113 40.747C44.1882 40.6376 44.0154 40.5829 43.7927 40.5829C43.5779 40.5829 43.4109 40.6288 43.2917 40.7206C43.1726 40.8104 43.113 40.9296 43.113 41.078C43.113 41.2167 43.1824 41.3329 43.321 41.4267C43.4617 41.5204 43.6677 41.6083 43.9392 41.6903C44.4392 41.8407 44.8035 42.0272 45.032 42.2499C45.2605 42.4725 45.3748 42.7499 45.3748 43.0819C45.3748 43.4511 45.2351 43.7411 44.9558 43.952C44.6765 44.161 44.3005 44.2655 43.8279 44.2655C43.4998 44.2655 43.2009 44.2059 42.9314 44.0868C42.6619 43.9657 42.4558 43.8007 42.3132 43.5917C42.1726 43.3827 42.1023 43.1405 42.1023 42.8651H42.9841C42.9841 43.3358 43.2654 43.5712 43.8279 43.5712C44.0369 43.5712 44.2 43.5292 44.3171 43.4452C44.4343 43.3593 44.4929 43.2401 44.4929 43.0878ZM49.1833 40.6532H47.8767V44.2069H46.9978V40.6532H45.7087V39.9413H49.1833V40.6532ZM52.2537 42.3583H50.5662V43.5009H52.5466V44.2069H49.6873V39.9413H52.5408V40.6532H50.5662V41.6698H52.2537V42.3583ZM54.6414 42.6454H53.9412V44.2069H53.0623V39.9413H54.6472C55.1511 39.9413 55.5398 40.0536 55.8132 40.2782C56.0867 40.5028 56.2234 40.8202 56.2234 41.2304C56.2234 41.5214 56.1599 41.7645 56.033 41.9599C55.908 42.1532 55.7175 42.3075 55.4617 42.4227L56.3845 44.1659V44.2069H55.4412L54.6414 42.6454ZM53.9412 41.9335H54.6501C54.8708 41.9335 55.0417 41.8778 55.1628 41.7665C55.2839 41.6532 55.3445 41.4979 55.3445 41.3007C55.3445 41.0995 55.2869 40.9413 55.1716 40.8261C55.0583 40.7108 54.8835 40.6532 54.6472 40.6532H53.9412V41.9335ZM59.2673 42.704V44.2069H58.3884V39.9413H60.0525C60.3728 39.9413 60.6541 39.9999 60.8962 40.1171C61.1404 40.2343 61.3279 40.4013 61.4587 40.6181C61.5896 40.8329 61.655 41.078 61.655 41.3534C61.655 41.7714 61.5115 42.1015 61.2244 42.3436C60.9392 42.5839 60.5437 42.704 60.0378 42.704H59.2673ZM59.2673 41.9921H60.0525C60.2849 41.9921 60.4617 41.9374 60.5828 41.828C60.7058 41.7186 60.7673 41.5624 60.7673 41.3593C60.7673 41.1503 60.7058 40.9813 60.5828 40.8524C60.4597 40.7235 60.2898 40.6571 60.073 40.6532H59.2673V41.9921ZM64.8279 42.3583H63.1404V43.5009H65.1208V44.2069H62.2615V39.9413H65.115V40.6532H63.1404V41.6698H64.8279V42.3583ZM68.906 40.6532H67.5994V44.2069H66.7205V40.6532H65.4314V39.9413H68.906V40.6532ZM71.9763 42.3583H70.2888V43.5009H72.2693V44.2069H69.4099V39.9413H72.2634V40.6532H70.2888V41.6698H71.9763V42.3583ZM74.364 42.6454H73.6638V44.2069H72.7849V39.9413H74.3699C74.8738 39.9413 75.2625 40.0536 75.5359 40.2782C75.8093 40.5028 75.946 40.8202 75.946 41.2304C75.946 41.5214 75.8826 41.7645 75.7556 41.9599C75.6306 42.1532 75.4402 42.3075 75.1843 42.4227L76.1072 44.1659V44.2069H75.1638L74.364 42.6454ZM73.6638 41.9335H74.3728C74.5935 41.9335 74.7644 41.8778 74.8855 41.7665C75.0066 41.6532 75.0671 41.4979 75.0671 41.3007C75.0671 41.0995 75.0095 40.9413 74.8943 40.8261C74.781 40.7108 74.6062 40.6532 74.3699 40.6532H73.6638V41.9335ZM78.8289 43.0878C78.8289 42.9218 78.7703 42.7948 78.6531 42.7069C78.5359 42.6171 78.325 42.5233 78.0203 42.4257C77.7156 42.3261 77.4744 42.2284 77.2966 42.1327C76.8123 41.871 76.5701 41.5184 76.5701 41.0751C76.5701 40.8446 76.6345 40.6395 76.7634 40.4599C76.8943 40.2782 77.0808 40.1366 77.323 40.035C77.5671 39.9335 77.8406 39.8827 78.1433 39.8827C78.448 39.8827 78.7195 39.9384 78.9578 40.0497C79.196 40.1591 79.3806 40.3143 79.5115 40.5155C79.6443 40.7167 79.7107 40.9452 79.7107 41.2011H78.8318C78.8318 41.0058 78.7703 40.8544 78.6472 40.747C78.5242 40.6376 78.3513 40.5829 78.1287 40.5829C77.9138 40.5829 77.7468 40.6288 77.6277 40.7206C77.5085 40.8104 77.449 40.9296 77.449 41.078C77.449 41.2167 77.5183 41.3329 77.657 41.4267C77.7976 41.5204 78.0037 41.6083 78.2751 41.6903C78.7751 41.8407 79.1394 42.0272 79.3679 42.2499C79.5964 42.4725 79.7107 42.7499 79.7107 43.0819C79.7107 43.4511 79.571 43.7411 79.2917 43.952C79.0125 44.161 78.6365 44.2655 78.1638 44.2655C77.8357 44.2655 77.5369 44.2059 77.2673 44.0868C76.9978 43.9657 76.7917 43.8007 76.6492 43.5917C76.5085 43.3827 76.4382 43.1405 76.4382 42.8651H77.3201C77.3201 43.3358 77.6013 43.5712 78.1638 43.5712C78.3728 43.5712 78.5359 43.5292 78.6531 43.4452C78.7703 43.3593 78.8289 43.2401 78.8289 43.0878Z"/>
        </symbol>

        <symbol id="icon-client3" viewBox="0 0 106 60">
        <path d="M36.4063 49.1014C36.4222 49.1018 36.4379 49.1049 36.4524 49.1106C36.4669 49.1163 36.4799 49.1245 36.4908 49.1346L36.7089 49.3431C36.5396 49.5118 36.3304 49.6468 36.0955 49.7388C35.8204 49.8391 35.5239 49.8875 35.2257 49.8809C34.9455 49.8859 34.6671 49.8408 34.4078 49.7482C34.1739 49.6632 33.9638 49.5356 33.7916 49.3739C33.6159 49.2062 33.4805 49.0096 33.3935 48.7958C33.2982 48.5574 33.2512 48.3065 33.2545 48.0542C33.2506 47.8003 33.3015 47.548 33.4044 47.3103C33.4997 47.0951 33.6433 46.8986 33.827 46.7322C34.0132 46.5691 34.2359 46.4408 34.4814 46.3555C34.7499 46.265 35.0359 46.22 35.3239 46.2228C35.5914 46.2172 35.8575 46.2582 36.1064 46.3436C36.3223 46.425 36.5206 46.538 36.6926 46.6777L36.5099 46.9004C36.4973 46.9161 36.4816 46.9297 36.4635 46.9407C36.442 46.9535 36.4159 46.9594 36.3899 46.9573C36.3616 46.9556 36.3343 46.9474 36.3109 46.9336L36.2127 46.8743L36.0764 46.7985C36.0175 46.7704 35.9565 46.7458 35.8937 46.7251C35.8128 46.6999 35.7299 46.6801 35.6456 46.6659C35.5386 46.6487 35.4299 46.6408 35.3211 46.6422C35.1138 46.6399 34.908 46.6737 34.7159 46.7417C34.5367 46.8046 34.375 46.8999 34.2415 47.0212C34.1055 47.1503 34.0007 47.3018 33.9334 47.4667C33.8566 47.6553 33.8187 47.8542 33.8216 48.0542C33.8183 48.2574 33.8561 48.4595 33.9334 48.6513C33.9999 48.8147 34.1027 48.9653 34.236 49.0943C34.3609 49.2146 34.5157 49.3086 34.6886 49.3692C34.8666 49.4333 35.0576 49.4655 35.2503 49.4639C35.3615 49.4654 35.4728 49.4591 35.5829 49.445C35.7627 49.4259 35.9351 49.3716 36.0873 49.2862C36.1636 49.2425 36.2356 49.1934 36.3027 49.1393C36.3307 49.1161 36.3676 49.1026 36.4063 49.1014Z"/>
        <path d="M42.7044 48.0538C42.7078 48.3052 42.6579 48.5549 42.5572 48.7906C42.4684 49.0043 42.3284 49.1993 42.1465 49.3626C41.9646 49.526 41.745 49.654 41.5021 49.7382C40.9683 49.9151 40.3782 49.9151 39.8444 49.7382C39.603 49.6527 39.3848 49.5244 39.2037 49.3615C39.0219 49.1952 38.8809 48.9985 38.7893 48.7835C38.5929 48.3063 38.5929 47.7847 38.7893 47.3075C38.8823 47.0923 39.0231 46.8951 39.2037 46.7271C39.3864 46.5694 39.6045 46.446 39.8444 46.3647C40.3775 46.1846 40.969 46.1846 41.5021 46.3647C41.7443 46.4501 41.9634 46.5784 42.1455 46.7413C42.325 46.906 42.465 47.1001 42.5572 47.3123C42.6582 47.5495 42.7081 47.8009 42.7044 48.0538ZM42.1319 48.0538C42.1362 47.8527 42.1011 47.6524 42.0283 47.4615C41.9672 47.298 41.8679 47.1472 41.7366 47.0185C41.6087 46.8968 41.4513 46.8013 41.2758 46.739C40.8879 46.6094 40.4586 46.6094 40.0707 46.739C39.8952 46.8013 39.7378 46.8968 39.6099 47.0185C39.4768 47.1464 39.3764 47.2974 39.3155 47.4615C39.1768 47.8472 39.1768 48.2604 39.3155 48.6461C39.377 48.8099 39.4773 48.9608 39.6099 49.0891C39.7379 49.2101 39.8953 49.3047 40.0707 49.3662C40.4593 49.4925 40.8872 49.4925 41.2758 49.3662C41.4512 49.3047 41.6086 49.2101 41.7366 49.0891C41.8673 48.9601 41.9665 48.8094 42.0283 48.6461C42.1015 48.4552 42.1365 48.2549 42.1319 48.0538Z"/>
        <path d="M47.0013 48.6748L47.0586 48.8074C47.0804 48.76 47.0995 48.7174 47.1213 48.6748C47.1421 48.6302 47.1657 48.5867 47.1922 48.5445L48.5854 46.3439C48.6127 46.306 48.6372 46.2823 48.6645 46.2752C48.7015 46.2654 48.7403 46.2614 48.779 46.2634H49.1907V49.8426H48.7026V47.2109C48.7026 47.1777 48.7026 47.1398 48.7026 47.0995C48.7 47.0585 48.7 47.0174 48.7026 46.9764L47.3012 49.2077C47.2834 49.2412 47.255 49.2694 47.2192 49.2892C47.1834 49.3089 47.1418 49.3193 47.0995 49.3191H47.0204C46.9779 49.3196 46.9362 49.3093 46.9004 49.2896C46.8646 49.2698 46.8362 49.2413 46.8186 49.2077L45.3763 46.9622C45.3763 47.0048 45.3763 47.0474 45.3763 47.0901C45.3763 47.1327 45.3763 47.1706 45.3763 47.2038V49.8355H44.9047V46.2634H45.3164C45.355 46.2614 45.3938 46.2654 45.4309 46.2752C45.4647 46.2898 45.4916 46.314 45.5072 46.3439L46.9304 48.5469C46.9584 48.5876 46.9821 48.6304 47.0013 48.6748Z"/>
        <path d="M52.2444 48.4969V49.8376H51.6991V46.2632H52.9151C53.1446 46.2594 53.3735 46.2858 53.594 46.3414C53.7705 46.3849 53.9341 46.4608 54.0739 46.5641C54.195 46.6609 54.2883 46.7809 54.3465 46.9146C54.4109 47.0604 54.4423 47.2157 54.4392 47.3718C54.4416 47.5285 54.4073 47.6841 54.3383 47.829C54.2728 47.9661 54.1721 48.0884 54.0439 48.1866C53.904 48.2942 53.7395 48.3749 53.5613 48.4235C53.349 48.4824 53.127 48.5104 52.9042 48.5064L52.2444 48.4969ZM52.2444 48.1132H52.9042C53.0475 48.1148 53.1902 48.0964 53.3268 48.0587C53.4395 48.0258 53.5433 47.9734 53.6322 47.9048C53.7141 47.8392 53.7775 47.7582 53.8176 47.6679C53.8622 47.5724 53.8844 47.4701 53.883 47.3671C53.8893 47.2677 53.8707 47.1683 53.8283 47.0759C53.7859 46.9834 53.7208 46.9001 53.6376 46.8317C53.4293 46.6904 53.1677 46.622 52.9042 46.6399H52.2444V48.1132Z"/>
        <path d="M59.5731 49.8424H59.1423C59.0991 49.8439 59.0566 49.8322 59.0223 49.8093C58.9914 49.787 58.9671 49.7585 58.9514 49.7264L58.5806 48.8617H56.7185L56.334 49.7264C56.3199 49.758 56.2964 49.7858 56.2659 49.8069C56.2312 49.8312 56.1877 49.8438 56.1432 49.8424H55.7124L57.3483 46.2629H57.9154L59.5731 49.8424ZM56.8739 48.5134H58.4116L57.7627 47.0565C57.7131 46.9469 57.6721 46.8345 57.64 46.7201L57.5773 46.9072C57.5582 46.9641 57.5364 47.0162 57.5173 47.0589L56.8739 48.5134Z"/>
        <path d="M61.9288 46.2795C61.9614 46.2951 61.9894 46.317 62.0106 46.3435L64.3962 49.0418C64.3962 48.9991 64.3962 48.9565 64.3962 48.9162C64.3962 48.8759 64.3962 48.8357 64.3962 48.7978V46.263H64.8843V49.8425H64.6116C64.5729 49.8435 64.5345 49.8362 64.4998 49.8212C64.4662 49.8041 64.4365 49.7816 64.4126 49.7548L62.0297 47.0589C62.0323 47.1 62.0323 47.1411 62.0297 47.1821C62.0297 47.2224 62.0297 47.2579 62.0297 47.2911V49.8425H61.5416V46.263H61.8306C61.8644 46.2621 61.8979 46.2678 61.9288 46.2795Z"/>
        <path d="M68.9031 48.4188V49.8402H68.3578V48.4188L66.8501 46.2631H67.3381C67.3802 46.2609 67.4218 46.2718 67.4554 46.2939C67.4851 46.3168 67.51 46.3441 67.529 46.3744L68.4724 47.765C68.5105 47.8242 68.5432 47.8787 68.5705 47.9308C68.5978 47.9829 68.6196 48.0327 68.6387 48.0824L68.7096 47.9285C68.736 47.8721 68.767 47.8175 68.8023 47.765L69.732 46.3649C69.7516 46.337 69.7754 46.3115 69.8029 46.2891C69.8352 46.2646 69.8772 46.2518 69.9201 46.2536H70.4136L68.9031 48.4188Z"/>
        <path d="M46.7314 40.2561C46.9686 40.2822 47.2086 40.3035 47.4512 40.3225C51.1301 38.8926 54.2422 36.5523 56.3987 33.5942C58.5552 30.636 59.6603 27.1912 59.5759 23.6904L55.5216 20.1678C56.346 23.8951 55.9604 27.7482 54.408 31.2959C52.8555 34.8437 50.1976 37.9461 46.7314 40.2561Z"/>
        <path d="M45.2837 40.0923L45.3928 40.1112C49.0966 37.8094 51.9205 34.5951 53.4993 30.8839C55.078 27.1727 55.3389 23.1353 54.2483 19.2939L48.4737 14.2767C50.8094 18.4008 51.7495 23.0162 51.1848 27.5862C50.6201 32.1562 48.5737 36.493 45.2837 40.0923Z"/>
        <path d="M64.868 27.8266C63.8869 31.6732 61.5042 35.1423 58.0736 37.7189C57.0717 38.4756 55.991 39.1497 54.8455 39.7325C57.6389 39.0191 60.2065 37.7579 62.3503 36.046C64.494 34.3342 66.1567 32.2175 67.21 29.8591L64.868 27.8266Z"/>
        <path d="M63.949 27.2602L60.6146 24.363C60.5508 27.6661 59.47 30.8941 57.4845 33.7115C55.499 36.5288 52.6813 38.8328 49.3242 40.3838H49.3406C50.0887 40.3836 50.8362 40.3448 51.579 40.2677C54.7164 39.1551 57.488 37.385 59.6464 35.1153C61.8049 32.8456 63.283 30.147 63.949 27.2602Z"/>
        <path d="M45.7663 12.161L41.7883 8.7C38.2322 9.89395 35.1738 11.9929 33.0134 14.7221C30.8529 17.4513 29.6912 20.6836 29.6801 23.996V23.996C29.6934 27.656 31.1113 31.2077 33.7093 34.0888C36.3073 36.97 39.9371 39.016 44.0241 39.9031C47.6725 36.041 49.8086 31.2688 50.1219 26.2798C50.4352 21.2908 48.9094 16.345 45.7663 12.161Z"/>
        <path d="M73.1401 26.7273C73.1257 22.3849 71.1339 18.2238 67.5997 15.1532C64.0656 12.0826 59.2764 10.352 54.2784 10.3395C51.9688 10.3374 49.6789 10.7077 47.5249 11.4316L71.8805 32.5927C72.7144 30.7221 73.1415 28.7333 73.1401 26.7273Z"/>
        </symbol>

        <symbol id="icon-client2" viewBox="0 0 106 60">
        <path d="M50.1136 5.93452H49.977C49.7671 5.92181 49.5571 5.91672 49.3471 5.91163H49.3471H49.3269H48.8918C48.4946 5.91163 48.0898 5.92181 47.6876 5.94215C47.6573 5.93994 47.6269 5.93994 47.5966 5.94215C43.9522 6.14863 40.3817 7.05951 37.0805 8.62492L36.6479 8.83344V30.9746L37.6598 30.6313C38.5477 30.3261 39.4938 30.0515 40.4728 29.7972C43.1193 29.1178 45.8367 28.7567 48.568 28.7216V31.6306C48.2062 31.6332 47.8546 31.6434 47.503 31.6612H47.4195C45.3175 31.7765 43.2317 32.0967 41.1913 32.6173C38.6072 33.2643 36.1143 34.2357 33.7716 35.5086V7.11189C36.2047 5.69275 38.8253 4.62687 41.5556 3.94596C43.9527 3.32705 46.4169 3.00931 48.8918 3H49.3193C49.8303 3.01271 50.3287 3.0356 50.7967 3.0712C52.0297 3.15778 53.2528 3.35263 54.4521 3.65353V6.51685C53.2874 6.24551 52.1032 6.06695 50.9105 5.98284C50.8863 5.98079 50.8621 5.97872 50.8379 5.97666C50.5911 5.95561 50.344 5.93452 50.1136 5.93452ZM55.1528 8.86138C55.7877 8.9097 56.4455 8.93259 57.1108 8.93259C59.7125 8.92307 62.3031 8.59083 64.8239 7.94339C67.4068 7.29396 69.8986 6.32178 72.2411 5.04956V32.9402C69.8067 34.3585 67.1853 35.4243 64.4546 36.1061C62.0571 36.7227 59.5931 37.0395 57.1184 37.0496C55.2433 37.0647 53.3737 36.8443 51.553 36.3935V8.32229C51.983 8.42146 52.4257 8.51301 52.876 8.58929C53.6147 8.7139 54.3939 8.80544 55.1528 8.86138ZM69.3471 9.07753L68.3352 9.41828C67.4042 9.73106 66.4657 10.0108 65.5221 10.26C62.7749 10.966 59.9514 11.3281 57.1158 11.3382C56.4556 11.3382 55.8485 11.3204 55.2616 11.2822L54.4546 11.2288V31.3178V34.0057L55.1477 34.0667C55.7903 34.1227 56.4531 34.1506 57.1209 34.1506C59.3544 34.1412 61.5781 33.8533 63.7412 33.2937C65.5223 32.8469 67.2552 32.2243 68.9145 31.4348L69.3471 31.2263V9.07753Z"/>
        <path d="M35.7371 45.2124C35.5917 45.0615 35.4163 44.943 35.2224 44.8646C35.0284 44.7862 34.8203 44.7496 34.6114 44.7572C34.3888 44.7542 34.1678 44.7957 33.9613 44.8793C33.7719 44.9547 33.5998 45.068 33.4553 45.2124C33.3125 45.3572 33.2013 45.5304 33.129 45.721C33.0497 45.9207 33.0101 46.1341 33.0126 46.3491V50.1431C33.0036 50.4104 33.0546 50.6764 33.1619 50.9212C33.2514 51.1156 33.3807 51.2889 33.5413 51.4298C33.693 51.5575 33.871 51.6495 34.0625 51.6994C34.2469 51.7512 34.4376 51.7777 34.6291 51.7782C34.8404 51.7803 35.0495 51.7351 35.2413 51.646C35.4309 51.563 35.6028 51.4438 35.7473 51.295C35.8881 51.1476 36.0005 50.9752 36.0786 50.7864C36.1597 50.5951 36.201 50.3892 36.2001 50.1812V49.7566H35.2084V50.0948C35.2114 50.2103 35.1916 50.3252 35.1502 50.433C35.1179 50.5137 35.0688 50.5866 35.006 50.6466C34.9446 50.6962 34.8742 50.7334 34.7986 50.7559C34.7316 50.7782 34.6617 50.7902 34.5912 50.7915C34.5026 50.8018 34.413 50.7885 34.3312 50.7527C34.2495 50.717 34.1786 50.6602 34.1257 50.5881C34.0322 50.4356 33.9864 50.2585 33.9942 50.0795V46.5423C33.988 46.3462 34.0297 46.1515 34.1156 45.9753C34.1671 45.8952 34.2399 45.8313 34.3258 45.7908C34.4117 45.7503 34.5071 45.7349 34.6013 45.7464C34.6868 45.7434 34.7717 45.7612 34.8488 45.7984C34.9259 45.8356 34.9929 45.8911 35.044 45.96C35.155 46.1057 35.213 46.2852 35.2084 46.4686V46.7966H36.19V46.4101C36.1919 46.1831 36.1507 45.9578 36.0685 45.7464C35.9953 45.5476 35.8825 45.3659 35.7371 45.2124Z"/>
        <path d="M41.6289 45.1691C41.3127 44.9021 40.9136 44.7546 40.5007 44.7521C40.2987 44.7529 40.0984 44.7891 39.9087 44.8589C39.7161 44.9279 39.5384 45.0332 39.3851 45.1691C39.2208 45.3168 39.0897 45.498 39.0005 45.7006C38.9006 45.9323 38.8515 46.183 38.8563 46.4355V50.0744C38.8495 50.3304 38.8987 50.5847 39.0005 50.8195C39.0903 51.0151 39.2215 51.1887 39.3851 51.328C39.5367 51.4688 39.7147 51.5777 39.9087 51.6485C40.0984 51.7183 40.2987 51.7544 40.5007 51.7553C40.7027 51.7549 40.9031 51.7187 41.0926 51.6485C41.29 51.5767 41.4719 51.468 41.6289 51.328C41.7871 51.1861 41.9145 51.013 42.0033 50.8195C42.1051 50.5847 42.1544 50.3304 42.1475 50.0744V46.4355C42.1524 46.183 42.1032 45.9323 42.0033 45.7006C41.9151 45.5001 41.7878 45.3194 41.6289 45.1691ZM41.166 50.0744C41.1743 50.1714 41.1609 50.269 41.1268 50.3601C41.0926 50.4512 41.0386 50.5334 40.9687 50.6008C40.8377 50.7106 40.6725 50.7708 40.5019 50.7708C40.3313 50.7708 40.1662 50.7106 40.0352 50.6008C39.9652 50.5334 39.9112 50.4512 39.8771 50.3601C39.8429 50.269 39.8295 50.1714 39.8379 50.0744V46.4355C39.8295 46.3385 39.8429 46.2409 39.8771 46.1498C39.9112 46.0587 39.9652 45.9764 40.0352 45.9091C40.1662 45.7993 40.3313 45.7391 40.5019 45.7391C40.6725 45.7391 40.8377 45.7993 40.9687 45.9091C41.0386 45.9764 41.0926 46.0587 41.1268 46.1498C41.1609 46.2409 41.1743 46.3385 41.166 46.4355V50.0744Z" fill="#AFB1B8"/>
        <path d="M49.3673 51.6994V44.8107H48.4136L47.1614 48.4572H47.1437L45.8813 44.8107H44.9377V51.6994H45.9218V47.5087H45.9395L46.9033 50.4712H47.3941L48.3655 47.5087H48.3832V51.6994H49.3673Z"/>
        <path d="M54.9581 45.2937C54.8065 45.1237 54.6153 44.9943 54.4015 44.9173C54.1712 44.8424 53.9302 44.8063 53.6881 44.8105H52.226V51.6993H53.2075V49.0089H53.7134C54.0197 49.0228 54.3244 48.958 54.5988 48.8207C54.822 48.6968 55.0081 48.515 55.1377 48.2943C55.2512 48.1111 55.3277 47.9071 55.3628 47.6942C55.4014 47.435 55.4192 47.173 55.4159 46.911C55.4255 46.5802 55.3932 46.2495 55.3198 45.9269C55.2543 45.6885 55.1299 45.4706 54.9581 45.2937ZM54.4521 47.3941C54.4479 47.5188 54.4168 47.6412 54.361 47.7527C54.3049 47.8586 54.2162 47.9434 54.1081 47.9942C53.9627 48.0593 53.8041 48.0889 53.6451 48.0807H53.1974V45.7387H53.7033C53.8557 45.7312 54.0075 45.7609 54.146 45.8251C54.2475 45.8834 54.3281 45.9724 54.3762 46.0794C54.4299 46.2004 54.4591 46.331 54.4622 46.4634C54.4622 46.6084 54.4622 46.7609 54.4622 46.9211C54.4622 47.0813 54.4723 47.2466 54.4622 47.3941H54.4521Z"/>
        <path d="M59.6077 44.8107H58.8032L57.2854 51.6994H58.2669L58.5553 50.2194H59.8935L60.1819 51.6994H61.1635L59.6077 44.8107ZM58.702 49.2811L59.1852 46.784H59.2029L59.6836 49.2811H58.702Z"/>
        <path d="M65.9497 48.9607H65.932L64.4496 44.8107H63.506V51.6994H64.4875V47.557H64.5078L66.0079 51.6994H66.9312V44.8107H65.9497V48.9607Z"/>
        <path d="M71.9476 44.8107L71.1583 47.5494H71.1381L70.3488 44.8107H69.3091L70.6574 48.7878V51.6994H71.639V48.7878L72.9873 44.8107H71.9476Z"/>
        <path d="M33 53.6445H33.4731V54.9719H33.7943V53.6445H34.2649V53.3724H33V53.6445Z"/>
        <path d="M36.9767 53.3724L36.3569 54.9719H36.6984L36.83 54.6083H37.4675L37.6041 54.9719H37.9532L37.3182 53.3724H36.9767ZM36.9261 54.3387L37.1437 53.7462L37.3612 54.3387H36.9261Z"/>
        <path d="M40.9079 54.3821H41.2773V54.5881C41.1694 54.6746 41.0358 54.722 40.8978 54.7229C40.8333 54.7265 40.7689 54.7145 40.7099 54.688C40.6509 54.6614 40.5991 54.6211 40.5588 54.5703C40.474 54.4485 40.4322 54.3017 40.4399 54.1533C40.4399 53.7973 40.5942 53.6193 40.9003 53.6193C40.9809 53.6112 41.0617 53.6325 41.128 53.6791C41.1944 53.7257 41.2419 53.7947 41.2621 53.8735L41.5783 53.8125C41.51 53.4997 41.2849 53.3421 40.9003 53.3421C40.6947 53.3366 40.4947 53.4103 40.3413 53.5481C40.2607 53.6276 40.1983 53.7239 40.1586 53.8302C40.1188 53.9365 40.1026 54.0502 40.1111 54.1634C40.1017 54.3823 40.1749 54.5966 40.316 54.7636C40.3943 54.8444 40.4892 54.9071 40.594 54.9475C40.6988 54.9879 40.8111 55.0049 40.9231 54.9975C41.1734 55.0045 41.4165 54.9133 41.6011 54.7432V54.1126H40.9079V54.3821Z"/>
        <path d="M44.9226 53.3724H44.5988V54.9719H45.7194V54.6998H44.9226V53.3724Z"/>
        <path d="M48.3175 53.3724H47.9937V54.9719H48.3175V53.3724Z"/>
        <path d="M51.6365 54.4405L50.9813 53.3724H50.6676V54.9719H50.9686V53.9268L51.6112 54.9719H51.9325V53.3724H51.6365V54.4405Z"/>
        <path d="M54.6368 54.2675H55.4337V53.9954H54.6368V53.6445H55.4944V53.3724H54.313V54.9719H55.5273V54.6998H54.6368V54.2675Z"/>
        <path d="M61.9122 54.0031H61.2823V53.3724H60.9611V54.9719H61.2823V54.2726H61.9122V54.9719H62.2335V53.3724H61.9122V54.0031Z"/>
        <path d="M64.9302 54.2675H65.7296V53.9954H64.9302V53.6445H65.7903V53.3724H64.6089V54.9719H65.8206V54.6998H64.9302V54.2675Z"/>
        <path d="M69.0233 54.2676C69.3015 54.2244 69.4432 54.0769 69.4432 53.8226C69.4513 53.7546 69.441 53.6856 69.4134 53.623C69.3858 53.5603 69.3419 53.5063 69.2863 53.4666C69.1415 53.3938 68.9799 53.3614 68.8183 53.3725H68.1404V54.972H68.4617V54.3032H68.5249C68.5934 54.299 68.6619 54.3112 68.7247 54.3388C68.7717 54.3678 68.8108 54.4079 68.8386 54.4558L69.1877 54.9644H69.5722L69.3774 54.6516C69.2913 54.4972 69.1699 54.3656 69.0233 54.2676ZM68.6994 54.0464H68.4617V53.6446H68.7146C68.8248 53.6357 68.9357 53.6486 69.041 53.6827C69.0644 53.7034 69.0828 53.7291 69.095 53.7579C69.1072 53.7867 69.1127 53.8179 69.1113 53.8492C69.1098 53.8804 69.1014 53.911 69.0866 53.9385C69.0718 53.966 69.051 53.9899 69.0258 54.0082C68.9202 54.0406 68.8096 54.0535 68.6994 54.0464Z"/>
        <path d="M72.1096 54.2675H72.9064V53.9954H72.1096V53.6445H72.9697V53.3724H71.7858V54.9719H73V54.6998H72.1096V54.2675Z"/>
        </symbol>
  
        <symbol id="icon-client1" viewBox="0 0 106 60">
        <path d="M38 7L45.0078 13.6341L32 13.6265V45.8137H66V33.507L73 40.1338V7H38ZM65.6924 32.7283L45.8226 13.918H65.6924V32.7283ZM59.5231 41.1055H37.3801V19.4579H38.9453V39.6397H59.5231V41.1055ZM42.6089 50.0991L41.791 51.7837L40.9731 50.0991H40.2871L41.481 52.3452V53.6538H42.1011V52.3452L43.2925 50.0991H42.6089ZM43.6367 53.6538L43.9248 52.8262H45.3018L45.5923 53.6538H46.2368L44.8916 50.0991H44.3374L42.9946 53.6538H43.6367ZM44.6133 50.8535L45.1284 52.3281H44.0981L44.6133 50.8535ZM47.8701 52.2427C47.7806 52.3794 47.7358 52.5299 47.7358 52.6943C47.7358 52.9938 47.8408 53.2371 48.0508 53.4243C48.2624 53.6099 48.5439 53.7026 48.8955 53.7026C49.2471 53.7026 49.5498 53.6074 49.8037 53.417L50.0039 53.6538H50.6924L50.1699 53.0361C50.375 52.7562 50.4775 52.3973 50.4775 51.9595H49.9624C49.9624 52.1987 49.9128 52.416 49.8135 52.6113L49.1274 51.8008L49.3691 51.625C49.54 51.5013 49.6629 51.3776 49.7378 51.2539C49.8127 51.1286 49.8501 50.9919 49.8501 50.8438C49.8501 50.6191 49.7671 50.4312 49.6011 50.2798C49.4367 50.1268 49.2251 50.0503 48.9663 50.0503C48.6798 50.0503 48.452 50.1317 48.2827 50.2944C48.1134 50.4556 48.0288 50.6753 48.0288 50.9536C48.0288 51.0675 48.0557 51.1855 48.1094 51.3076C48.1647 51.4297 48.2616 51.5778 48.3999 51.752C48.1362 51.9408 47.9596 52.1043 47.8701 52.2427ZM49.4741 53.0288C49.3 53.1623 49.1128 53.229 48.9126 53.229C48.7352 53.229 48.5936 53.1777 48.4878 53.0752C48.382 52.9727 48.3291 52.8392 48.3291 52.6748C48.3291 52.4844 48.4268 52.3151 48.6221 52.167L48.6978 52.1133L49.4741 53.0288ZM48.8369 51.4541C48.6693 51.2474 48.5854 51.0757 48.5854 50.939C48.5854 50.8201 48.6196 50.7217 48.688 50.6436C48.7563 50.5654 48.8483 50.5264 48.9639 50.5264C49.0713 50.5264 49.16 50.5597 49.23 50.6265C49.3 50.6916 49.335 50.7705 49.335 50.8633C49.335 51.0033 49.2845 51.118 49.1836 51.2075L49.1079 51.2686L48.8369 51.4541ZM54.623 53.3853C54.8672 53.172 55.0072 52.8758 55.043 52.4966H54.4277C54.3952 52.7505 54.3179 52.932 54.1958 53.041C54.0737 53.1501 53.8914 53.2046 53.6489 53.2046C53.3836 53.2046 53.1818 53.1037 53.0435 52.9019C52.9067 52.7 52.8384 52.4071 52.8384 52.0229V51.708C52.8416 51.3288 52.9149 51.0415 53.0581 50.8462C53.203 50.6493 53.4097 50.5508 53.6782 50.5508C53.9093 50.5508 54.0843 50.6077 54.2031 50.7217C54.3236 50.834 54.3984 51.0179 54.4277 51.2734H55.043C55.0039 50.8844 54.8647 50.5833 54.6255 50.3701C54.3862 50.1569 54.0705 50.0503 53.6782 50.0503C53.3869 50.0503 53.1297 50.1195 52.9067 50.2578C52.6854 50.3962 52.5153 50.5931 52.3965 50.8486C52.2777 51.1042 52.2183 51.3996 52.2183 51.7349V52.0669C52.2231 52.394 52.2842 52.6813 52.4014 52.9287C52.5186 53.1761 52.6846 53.3674 52.8994 53.5024C53.1159 53.6359 53.3657 53.7026 53.6489 53.7026C54.0542 53.7026 54.3789 53.5968 54.623 53.3853ZM58.2534 52.8872C58.3739 52.6235 58.4341 52.3175 58.4341 51.9692V51.7715C58.4325 51.4248 58.3706 51.1213 58.2485 50.8608C58.1265 50.5988 57.9531 50.3986 57.7285 50.2603C57.5055 50.1203 57.2492 50.0503 56.9595 50.0503C56.6698 50.0503 56.4126 50.1211 56.188 50.2627C55.965 50.4027 55.7917 50.6053 55.668 50.8706C55.5459 51.1359 55.4849 51.4419 55.4849 51.7886V51.9888C55.4865 52.3289 55.5483 52.6292 55.6704 52.8896C55.7941 53.1501 55.9683 53.3511 56.1929 53.4927C56.4191 53.6326 56.6763 53.7026 56.9644 53.7026C57.2557 53.7026 57.5129 53.6326 57.7358 53.4927C57.9604 53.3511 58.133 53.1493 58.2534 52.8872ZM57.5918 50.8779C57.7415 51.0879 57.8164 51.3898 57.8164 51.7837V51.9692C57.8164 52.3696 57.7423 52.674 57.5942 52.8823C57.4478 53.0907 57.2378 53.1948 56.9644 53.1948C56.6942 53.1948 56.4826 53.0882 56.3296 52.875C56.1782 52.6618 56.1025 52.3599 56.1025 51.9692V51.7642C56.1058 51.3817 56.1823 51.0863 56.332 50.8779C56.4834 50.668 56.6925 50.563 56.9595 50.563C57.2329 50.563 57.4437 50.668 57.5918 50.8779Z"/> 
        </symbol>
     
        <symbol id="icon-facebook" viewBox="0 0 20 20">
        <path d="M13.3308 3.32083H15.1566V0.140833C14.8416 0.0975 13.7583 0 12.4966 0C9.8641 0 8.06076 1.65583 8.06076 4.69917V7.5H5.15576V11.055H8.06076V20H11.6224V11.0558H14.4099L14.8524 7.50083H11.6216V5.05167C11.6224 4.02417 11.8991 3.32083 13.3308 3.32083Z"/>
        </symbol>

        <symbol id="icon-twitter" viewBox="0 0 20 20">
        <path d="M20 3.79875C19.2563 4.125 18.4637 4.34125 17.6375 4.44625C18.4875 3.93875 19.1363 3.14125 19.4412 2.18C18.6488 2.6525 17.7738 2.98625 16.8412 3.1725C16.0887 2.37125 15.0162 1.875 13.8462 1.875C11.5763 1.875 9.74875 3.7175 9.74875 5.97625C9.74875 6.30125 9.77625 6.61375 9.84375 6.91125C6.435 6.745 3.41875 5.11125 1.3925 2.6225C1.03875 3.23625 0.83125 3.93875 0.83125 4.695C0.83125 6.115 1.5625 7.37375 2.6525 8.1025C1.99375 8.09 1.3475 7.89875 0.8 7.5975C0.8 7.61 0.8 7.62625 0.8 7.6425C0.8 9.635 2.22125 11.29 4.085 11.6712C3.75125 11.7625 3.3875 11.8062 3.01 11.8062C2.7475 11.8062 2.4825 11.7913 2.23375 11.7362C2.765 13.36 4.2725 14.5538 6.065 14.5925C4.67 15.6838 2.89875 16.3412 0.98125 16.3412C0.645 16.3412 0.3225 16.3263 0 16.285C1.81625 17.4563 3.96875 18.125 6.29 18.125C13.835 18.125 17.96 11.875 17.96 6.4575C17.96 6.27625 17.9538 6.10125 17.945 5.9275C18.7588 5.35 19.4425 4.62875 20 3.79875Z"/>
        </symbol>
      
        <symbol id="icon-insta" viewBox="0 0 20 20">
        <g clip-path="url(#clip0_1_2086)">
        <path d="M19.9804 5.88005C19.9336 4.81738 19.7617 4.0868 19.5156 3.45374C19.2616 2.78176 18.8709 2.18014 18.359 1.68002C17.8589 1.1721 17.2533 0.777435 16.5891 0.527447C15.9524 0.281274 15.2256 0.109427 14.163 0.0625732C13.0924 0.0117516 12.7525 0 10.0371 0C7.32173 0 6.98185 0.0117516 5.91521 0.0586052C4.85253 0.105459 4.12195 0.277459 3.48904 0.523479C2.81692 0.777435 2.2153 1.16814 1.71517 1.68002C1.20726 2.18014 0.812743 2.78573 0.562603 3.44992C0.31643 4.0868 0.144583 4.81341 0.0977294 5.87609C0.0469078 6.9467 0.0351562 7.28658 0.0351562 10.002C0.0351562 12.7173 0.0469078 13.0572 0.0937614 14.1239C0.140615 15.1865 0.312615 15.9171 0.558787 16.5502C0.812743 17.2221 1.20726 17.8238 1.71517 18.3239C2.2153 18.8318 2.82088 19.2265 3.48508 19.4765C4.12195 19.7226 4.84856 19.8945 5.91139 19.9413C6.97788 19.9883 7.31791 19.9999 10.0333 19.9999C12.7487 19.9999 13.0885 19.9883 14.1552 19.9413C15.2179 19.8945 15.9484 19.7226 16.5813 19.4765C17.9254 18.9568 18.9881 17.8941 19.5078 16.5502C19.7538 15.9133 19.9258 15.1865 19.9727 14.1239C20.0195 13.0572 20.0313 12.7173 20.0313 10.002C20.0313 7.28658 20.0273 6.9467 19.9804 5.88005ZM18.1794 14.0457C18.1364 15.0225 17.9723 15.5499 17.8356 15.9015C17.4995 16.7728 16.808 17.4643 15.9367 17.8004C15.5851 17.9372 15.0538 18.1012 14.0809 18.1441C13.026 18.1911 12.7096 18.2027 10.0411 18.2027C7.37255 18.2027 7.05221 18.1911 6.00113 18.1441C5.02438 18.1012 4.49693 17.9372 4.1453 17.8004C3.71171 17.6402 3.31704 17.3862 2.9967 17.0541C2.6646 16.7298 2.41065 16.3391 2.2504 15.9055C2.11365 15.5539 1.94959 15.0225 1.90671 14.0497C1.8597 12.9948 1.8481 12.6783 1.8481 10.0097C1.8481 7.34122 1.8597 7.02087 1.90671 5.96995C1.94959 4.99319 2.11365 4.46575 2.2504 4.11412C2.41065 3.68038 2.6646 3.28586 3.00067 2.96536C3.32483 2.63327 3.71553 2.37931 4.14927 2.21921C4.5009 2.08247 5.03231 1.9184 6.0051 1.87537C7.05999 1.82851 7.37652 1.81676 10.0449 1.81676C12.7174 1.81676 13.0337 1.82851 14.0848 1.87537C15.0616 1.9184 15.589 2.08247 15.9407 2.21921C16.3742 2.37931 16.7689 2.63327 17.0893 2.96536C17.4213 3.28967 17.6753 3.68038 17.8356 4.11412C17.9723 4.46575 18.1364 4.99701 18.1794 5.96995C18.2263 7.02484 18.238 7.34122 18.238 10.0097C18.238 12.6783 18.2263 12.9908 18.1794 14.0457Z"/>
        <path d="M10.0371 4.8642C7.20074 4.8642 4.89941 7.16537 4.89941 10.0019C4.89941 12.8385 7.20074 15.1396 10.0371 15.1396C12.8737 15.1396 15.1749 12.8385 15.1749 10.0019C15.1749 7.16537 12.8737 4.8642 10.0371 4.8642ZM10.0371 13.3346C8.19702 13.3346 6.70442 11.8422 6.70442 10.0019C6.70442 8.16165 8.19702 6.66921 10.0371 6.66921C11.8774 6.66921 13.3698 8.16165 13.3698 10.0019C13.3698 11.8422 11.8774 13.3346 10.0371 13.3346Z"/>
        <path d="M16.5775 4.6611C16.5775 5.32346 16.0404 5.86052 15.3779 5.86052C14.7155 5.86052 14.1785 5.32346 14.1785 4.6611C14.1785 3.99858 14.7155 3.46167 15.3779 3.46167C16.0404 3.46167 16.5775 3.99858 16.5775 4.6611Z"/>
        </g>
        <defs>
        <clipPath id="clip0_1_2086">
        <rect width="20" height="20"/>
        </clipPath>
        </defs>
        </symbol>

        <symbol id="icon-linkedin" viewBox="0 0 20 20">
        <path d="M19.9951 20V19.9992H20.0001V12.6642C20.0001 9.07587 19.2276 6.31171 15.0326 6.31171C13.0159 6.31171 11.6626 7.41837 11.1101 8.46754H11.0517V6.64671H7.07422V19.9992H11.2159V13.3875C11.2159 11.6467 11.5459 9.96337 13.7017 9.96337C15.8259 9.96337 15.8576 11.95 15.8576 13.4992V20H19.9951Z"/>
        <path d="M0.330078 6.64746H4.47675V20H0.330078V6.64746Z"/>
        <path d="M2.40167 0C1.07583 0 0 1.07583 0 2.40167C0 3.7275 1.07583 4.82583 2.40167 4.82583C3.7275 4.82583 4.80333 3.7275 4.80333 2.40167C4.8025 1.07583 3.72667 0 2.40167 0V0Z"/>
        </symbol>
    
        <symbol id="icon-phone" viewBox="0 0 20 32">
        <path d="M17 0h-14c-1.654 0-3 1.346-3 3v26c0 1.654 1.346 3 3 3h14c1.654 0 3-1.346 3-3v-26c0-1.654-1.346-3-3-3zM3 2h14c0.552 0 1 0.448 1 1v21h-16v-21c0-0.552 0.448-1 1-1zM17 30h-14c-0.552 0-1-0.448-1-1v-3h16v3c0 0.552-0.448 1-1 1z"></path>
        <path d="M4.707 27.478c0.391 0.365 0.391 0.956 0 1.321s-1.024 0.365-1.414 0c-0.391-0.365-0.391-0.956 0-1.321s1.024-0.365 1.414 0z"></path>
        </symbol>
        <symbol id="icon-envelope" viewBox="0 0 43 32">
        <path d="M38.667 0h-34.667c-2.206 0-4 1.794-4 4v24c0 2.206 1.794 4 4 4h34.667c2.206 0 4-1.794 4-4v-24c0-2.206-1.794-4-4-4v0zM38.667 2.667c0.181 0 0.353 0.038 0.511 0.103l-17.844 15.466-17.844-15.466c0.158-0.066 0.33-0.103 0.511-0.103h34.667zM38.667 29.333h-34.667c-0.736 0-1.333-0.598-1.333-1.333v-22.413l17.793 15.421c0.251 0.217 0.563 0.326 0.874 0.326s0.622-0.108 0.874-0.326l17.793-15.421v22.413c0 0.736-0.598 1.333-1.333 1.333v0z"></path>
        </symbol>
        <symbol id="icon-close" viewBox="0 0 32 32">
        <path d="M26.667 7.303l-1.97-1.97-7.808 7.808-7.808-7.808-1.97 1.97 7.808 7.808-7.808 7.808 1.97 1.97 7.808-7.808 7.808 7.808 1.97-1.97-7.808-7.808 7.808-7.808z"></path>
        </symbol>
        <symbol id="icon-person-form" viewBox="0 0 32 32">
        <path d="M16 16c2.947 0 5.333-2.387 5.333-5.333s-2.387-5.333-5.333-5.333c-2.947 0-5.333 2.387-5.333 5.333s2.387 5.333 5.333 5.333zM16 18.667c-3.56 0-10.667 1.787-10.667 5.333v1.333c0 0.733 0.6 1.333 1.333 1.333h18.667c0.733 0 1.333-0.6 1.333-1.333v-1.333c0-3.547-7.107-5.333-10.667-5.333z"></path>
        </symbol>
        <symbol id="icon-email-form" viewBox="0 0 32 32">
        <path d="M26.667 5.333h-21.333c-1.467 0-2.653 1.2-2.653 2.667l-0.013 16c0 1.467 1.2 2.667 2.667 2.667h21.333c1.467 0 2.667-1.2 2.667-2.667v-16c0-1.467-1.2-2.667-2.667-2.667zM26.133 11l-9.427 5.893c-0.427 0.267-0.987 0.267-1.413 0l-9.427-5.893c-0.333-0.213-0.533-0.573-0.533-0.96 0-0.893 0.973-1.427 1.733-0.96l8.933 5.587 8.933-5.587c0.76-0.467 1.733 0.067 1.733 0.96 0 0.387-0.2 0.747-0.533 0.96z"></path>
        </symbol>
        <symbol id="icon-phone-form" viewBox="0 0 32 32">
        <path d="M24.882 19.773l-3.268-0.373c-0.785-0.090-1.557 0.18-2.11 0.733l-2.367 2.367c-3.641-1.853-6.626-4.825-8.478-8.478l2.38-2.38c0.553-0.553 0.823-1.325 0.733-2.11l-0.373-3.242c-0.154-1.299-1.248-2.277-2.56-2.277h-2.226c-1.454 0-2.663 1.209-2.573 2.663 0.682 10.987 9.469 19.761 20.443 20.443 1.454 0.090 2.663-1.119 2.663-2.573v-2.226c0.013-1.3-0.965-2.393-2.264-2.547z"></path>
        </symbol>
        <symbol id="icon-send-btn" viewBox="0 0 32 32">
        <path d="M32 0l-32 18 10.227 3.788 15.773-14.788-11.998 16.186 0.010 0.004-0.012-0.004v8.814l5.735-6.691 7.265 2.691 5-28z"></path>
        </symbol>
        <symbol id="check" viewBox="0 0 34 32"><path d="M8 17v-1l-2 2 8 8 16-16-2-2-14 14-6-5z"/></symbol>

        <!-- <symbol id="icon-burger-btn" viewBox="0 0 24 16">
        <path d="M0 2.66667V0H24V2.66667H0ZM0 9.33333H24V6.66667H0V9.33333ZM0 16H24V13.3333H0V16Z"/>
        </symbol> -->

        <symbol id="icon-burger-btn" viewBox="0 0 40 40">
        <path d="M8 14.6667V12H32V14.6667H8ZM8 21.3333H32V18.6667H8V21.3333ZM8 28H32V25.3333H8V28Z"/>
        </symbol>

    </defs>
</svg>

        
   
        



        
